<?xml version="1.0" standalone="no"?>
<!DOCTYPE svg PUBLIC "-//W3C//DTD SVG 20010904//EN"
 "http://www.w3.org/TR/2001/REC-SVG-20010904/DTD/svg10.dtd">
<svg version="1.0" xmlns="http://www.w3.org/2000/svg"
 width="1400.000000pt" height="1400.000000pt" viewBox="0 0 1400.000000 1400.000000"
 preserveAspectRatio="xMidYMid meet">
<metadata>
Created by potrace 1.11, written by Peter Selinger 2001-2013
</metadata>
<g transform="translate(0.000000,1400.000000) scale(0.100000,-0.100000)"
fill="#000000" stroke="none">
<path d="M0 7000 l0 -7000 7000 0 7000 0 0 7000 0 7000 -7000 0 -7000 0 0
-7000z m6340 5370 l0 -369 -2112 -1058 c-1162 -582 -2113 -1064 -2113 -1071 0
-7 950 -489 2110 -1071 l2110 -1058 3 -373 c2 -352 1 -372 -15 -368 -10 3
-1141 584 -2513 1291 l-2495 1285 0 293 0 294 2505 1291 c1378 710 2508 1289
2513 1287 4 -2 7 -170 7 -373z m3830 -900 l2495 -1279 3 -305 2 -305 -22 -14
c-61 -38 -4953 -2541 -4974 -2545 l-24 -4 0 366 0 367 28 15 c15 8 972 485
2127 1060 1155 574 2101 1049 2103 1054 2 6 -9 17 -25 25 -15 9 -968 483
-2118 1055 -1149 571 -2096 1044 -2102 1050 -10 8 -13 95 -13 369 0 329 2 371
19 371 4 0 1129 -576 2501 -1280z m660 -6117 l1840 -938 0 -305 0 -306 -2202
-1129 c-1211 -622 -2341 -1201 -2510 -1288 l-308 -158 2 377 3 377 2125 1057
c1218 606 2125 1062 2125 1070 0 7 -775 397 -1817 914 -1108 549 -1814 904
-1809 909 11 11 692 356 704 357 4 0 836 -422 1847 -937z m-2815 83 c207 -95
376 -177 377 -182 0 -8 -2097 -1044 -2114 -1044 -4 0 -8 157 -8 349 l0 349
683 350 c375 193 683 351 684 352 2 0 172 -78 378 -174z"/>
</g>
</svg>
